<svg width="295" height="258" viewBox="0 0 295 258" fill="none" xmlns="http://www.w3.org/2000/svg">
<ellipse cx="55.6214" cy="141.823" rx="53.5972" ry="14.4796" transform="rotate(8.85612 55.6214 141.823)" fill="url(#paint0_linear_40_5)"/>
<ellipse cx="55.1874" cy="168.558" rx="53.5972" ry="14.4796" transform="rotate(8.85612 55.1874 168.558)" fill="url(#paint1_linear_40_5)"/>
<ellipse cx="56.1874" cy="195.558" rx="53.5972" ry="14.4796" transform="rotate(8.85612 56.1874 195.558)" fill="url(#paint2_linear_40_5)"/>
<ellipse cx="259.5" cy="136.5" rx="35.5" ry="36.5" fill="url(#paint3_radial_40_5)"/>
<circle cx="149" cy="129" r="129" fill="url(#paint4_linear_40_5)"/>
<path d="M215 163.316C215 199.592 186.889 229 149 229C111.111 229 83 199.592 83 163.316C83 100.279 139.222 21 149 21C158.778 21 215 100.279 215 163.316Z" fill="#52DAC2"/>
<ellipse cx="149" cy="170.5" rx="32" ry="31.5" fill="url(#paint5_linear_40_5)"/>
<rect x="139" y="75" width="20" height="73" rx="5" fill="url(#paint6_linear_40_5)"/>
<rect x="202" y="75" width="10" height="29" rx="5" transform="rotate(90 202 75)" fill="url(#paint7_linear_40_5)"/>
<rect x="207" y="92" width="10" height="34" rx="5" transform="rotate(90 207 92)" fill="url(#paint8_linear_40_5)"/>
<path d="M7.73584 135.081C7.73584 132.001 10.6366 129.729 13.6364 130.429C29.6013 134.157 74.5333 143.717 105.619 141.17C137.738 138.538 153.563 116.922 185.596 120.481C200.89 122.181 208.118 130.996 223.496 131.434C225.954 131.504 227.973 133.452 227.973 135.911V136.693C227.973 139.179 225.981 141.241 223.496 141.17C208.118 140.732 200.89 131.916 185.596 130.217C153.563 126.657 137.738 148.274 105.619 150.906C72.8074 153.594 24.5694 142.794 11.2525 139.601C9.16076 139.1 7.73584 137.232 7.73584 135.081Z" fill="#797979"/>
<path d="M217.684 135.198C216.734 137.675 217.956 140.518 220.577 140.923C222.324 141.193 224.102 141.242 225.873 141.067C229.235 140.734 232.474 139.597 235.325 137.749C238.176 135.9 240.559 133.393 242.281 130.429C244.003 127.466 245.015 124.13 245.235 120.693C245.456 117.255 244.878 113.814 243.549 110.647C242.22 107.48 240.177 104.677 237.586 102.466C234.995 100.256 231.93 98.6987 228.638 97.9223C226.915 97.516 225.156 97.3294 223.401 97.3622C220.737 97.412 219.147 100.085 219.775 102.675C220.41 105.297 223.13 106.792 225.789 107.251C226.023 107.292 226.256 107.339 226.488 107.394C228.319 107.826 230.024 108.692 231.465 109.922C232.906 111.151 234.042 112.71 234.782 114.471C235.521 116.233 235.842 118.147 235.72 120.059C235.597 121.97 235.034 123.826 234.076 125.474C233.119 127.122 231.793 128.517 230.208 129.545C228.622 130.573 226.821 131.205 224.95 131.391C224.717 131.414 224.483 131.43 224.249 131.439C221.549 131.544 218.652 132.675 217.684 135.198Z" fill="#797979"/>
<path d="M7.73584 188.629C7.73584 185.548 10.6366 183.276 13.6364 183.976C29.6013 187.704 74.5333 197.264 105.619 194.717C137.738 192.086 153.479 172.049 185.596 169.16C199.13 167.943 186.913 169.16 201.778 167.943C204.28 167.739 206.254 169.912 206.254 172.422V173.2C206.254 175.635 204.205 177.481 201.778 177.679C186.913 178.896 196.415 177.679 185.596 178.896C153.569 182.499 137.738 201.821 105.619 204.453C72.8074 207.141 24.5694 196.341 11.2525 193.148C9.16076 192.647 7.73584 190.78 7.73584 188.629Z" fill="#797979"/>
<path d="M196.452 205.783C195.268 208.111 196.485 210.955 199.067 211.344C201.774 211.753 204.552 211.858 207.316 211.652C211.777 211.319 216.073 210.182 219.856 208.334C223.638 206.485 226.8 203.978 229.084 201.014C231.369 198.05 232.712 194.715 233.004 191.277C233.296 187.84 232.53 184.399 230.766 181.232C229.003 178.065 226.293 175.262 222.856 173.051C219.419 170.841 215.352 169.284 210.985 168.507C208.027 167.981 204.989 167.824 201.984 168.033C199.694 168.193 198.305 170.5 198.973 172.696C199.726 175.176 197.966 177.679 200.557 177.679C203.272 177.679 207.286 177.679 208.631 177.679C211.346 177.679 213.894 177.908 216.053 179.297C218.212 180.686 219.914 182.447 221.022 184.436C222.129 186.425 222.611 188.587 222.427 190.746C222.244 192.906 221.4 195.001 219.965 196.863C218.53 198.724 216.544 200.3 214.168 201.461C211.792 202.622 209.093 203.336 206.291 203.545C204.673 203.666 203.046 203.617 201.456 203.401C199.448 203.13 197.371 203.978 196.452 205.783Z" fill="#797979"/>
<path d="M7.73584 161.716C7.73584 158.671 10.5296 156.393 13.5114 157.01C30.7835 160.588 83.0674 170.535 119.043 167.943C155.567 165.312 173.562 143.695 209.989 147.255C227.38 148.954 235.599 157.77 253.086 158.208C253.134 158.209 253.182 158.21 253.23 158.211C255.948 158.271 258.177 160.435 258.177 163.154C258.177 165.811 256.043 168.001 253.386 167.95C253.284 167.948 253.184 167.946 253.086 167.943C235.599 167.505 227.38 158.69 209.989 156.991C173.562 153.431 155.567 175.048 119.043 177.679C81.454 180.388 26.061 169.406 11.4035 166.305C9.23321 165.846 7.73584 163.935 7.73584 161.716Z" fill="#797979"/>
<path d="M242.321 160.822C241.121 163.472 242.473 166.603 245.328 167.161C249.133 167.906 253.063 168.123 256.97 167.795C262.706 167.314 268.23 165.672 273.092 163.002C277.955 160.332 282.021 156.71 284.958 152.429C287.895 148.148 289.622 143.33 289.997 138.365C290.373 133.4 289.388 128.429 287.121 123.855C284.853 119.28 281.369 115.232 276.95 112.039C272.531 108.845 267.301 106.596 261.687 105.475C257.778 104.694 253.759 104.475 249.79 104.816C246.98 105.058 245.294 107.886 246.07 110.597C246.774 113.057 249.267 114.508 251.822 114.369C254.278 114.235 256.751 114.409 259.163 114.891C263.063 115.67 266.695 117.232 269.764 119.45C272.833 121.668 275.254 124.48 276.828 127.657C278.403 130.834 279.087 134.287 278.826 137.735C278.565 141.183 277.366 144.53 275.326 147.503C273.286 150.476 270.463 152.992 267.085 154.846C263.708 156.701 259.871 157.841 255.887 158.175C253.401 158.384 250.901 158.275 248.466 157.857C245.977 157.43 243.363 158.522 242.321 160.822Z" fill="#797979"/>
<defs>
<linearGradient id="paint0_linear_40_5" x1="0.863939" y1="141.931" x2="20.4715" y2="137.864" gradientUnits="userSpaceOnUse">
<stop offset="0.930486" stop-color="#C1F6ED"/>
<stop offset="1" stop-color="white" stop-opacity="0"/>
</linearGradient>
<linearGradient id="paint1_linear_40_5" x1="0.429979" y1="168.667" x2="21.5595" y2="158.558" gradientUnits="userSpaceOnUse">
<stop offset="0.930486" stop-color="#C1F6ED"/>
<stop offset="1" stop-color="white" stop-opacity="0"/>
</linearGradient>
<linearGradient id="paint2_linear_40_5" x1="1.42998" y1="195.667" x2="25.6202" y2="175.972" gradientUnits="userSpaceOnUse">
<stop offset="0.888927" stop-color="#C1F6ED"/>
<stop offset="0.91827" stop-color="white" stop-opacity="0"/>
</linearGradient>
<radialGradient id="paint3_radial_40_5" cx="0" cy="0" r="1" gradientUnits="userSpaceOnUse" gradientTransform="translate(278.5 137.5) rotate(6.11549) scale(14.0801 13.6944)">
<stop stop-color="white" stop-opacity="0"/>
<stop offset="0.137286" stop-color="#D2F6EF"/>
</radialGradient>
<linearGradient id="paint4_linear_40_5" x1="149" y1="0" x2="149" y2="258" gradientUnits="userSpaceOnUse">
<stop stop-color="#1BFBD3" stop-opacity="0"/>
<stop offset="1" stop-color="#02FBCE" stop-opacity="0.39"/>
</linearGradient>
<linearGradient id="paint5_linear_40_5" x1="149" y1="139" x2="149" y2="202" gradientUnits="userSpaceOnUse">
<stop stop-color="#C4F6ED"/>
<stop offset="1" stop-color="#ADF6E9"/>
</linearGradient>
<linearGradient id="paint6_linear_40_5" x1="149" y1="75" x2="149" y2="148" gradientUnits="userSpaceOnUse">
<stop stop-color="#DBF6F1"/>
<stop offset="1" stop-color="#C2F6ED"/>
</linearGradient>
<linearGradient id="paint7_linear_40_5" x1="212" y1="89" x2="201" y2="89" gradientUnits="userSpaceOnUse">
<stop stop-color="#D8F5F0"/>
<stop offset="1" stop-color="#DCF6F1"/>
</linearGradient>
<linearGradient id="paint8_linear_40_5" x1="219.5" y1="109" x2="207" y2="109" gradientUnits="userSpaceOnUse">
<stop stop-color="#D2F6F0"/>
<stop offset="1" stop-color="#D5F6F0"/>
</linearGradient>
</defs>
</svg>
