<svg width="644" height="234" viewBox="0 0 644 234" fill="none" xmlns="http://www.w3.org/2000/svg">
<path d="M70.0195 167.129V116.543C70.0195 113.678 69.4987 111.237 68.457 109.219C67.4805 107.135 66.0156 105.54 64.0625 104.434C62.1745 103.327 59.8307 102.773 57.0312 102.773C53.9062 102.773 51.2695 103.229 49.1211 104.141C47.0378 104.987 45.4427 106.159 44.3359 107.656C43.2292 109.154 42.6758 110.846 42.6758 112.734L9.66797 110.879C9.66797 105.996 10.7747 101.536 12.9883 97.5C15.2669 93.3984 18.4896 89.8503 22.6562 86.8555C26.8229 83.8607 31.8359 81.5495 37.6953 79.9219C43.6198 78.2292 50.2279 77.3828 57.5195 77.3828C66.569 77.3828 74.4141 78.8477 81.0547 81.7773C87.6953 84.707 92.8385 89.1016 96.4844 94.9609C100.13 100.755 101.953 108.014 101.953 116.738V163.711L70.0195 167.129ZM74.3164 121.035L74.6094 140.957H56.9336C53.0273 140.957 49.7396 141.576 47.0703 142.812C44.401 143.984 42.3828 145.547 41.0156 147.5C39.6484 149.453 38.9648 151.536 38.9648 153.75C38.9648 155.898 39.4857 157.786 40.5273 159.414C41.569 160.977 43.1641 162.181 45.3125 163.027C47.4609 163.874 50.2279 164.297 53.6133 164.297C56.0221 164.297 58.4635 163.874 60.9375 163.027C63.4115 162.181 65.6901 161.107 67.7734 159.805C69.8568 158.438 71.5169 156.973 72.7539 155.41C74.056 153.848 74.707 152.35 74.707 150.918L89.6484 166.152C88.0208 169.277 85.3841 172.467 81.7383 175.723C78.1576 178.913 73.5026 181.582 67.7734 183.73C62.0443 185.879 55.2409 186.953 47.3633 186.953C38.444 186.953 30.8919 185.586 24.707 182.852C18.5872 180.052 13.9323 176.146 10.7422 171.133C7.55208 166.055 5.95703 160.13 5.95703 153.359C5.95703 148.216 7.03125 143.659 9.17969 139.688C11.3932 135.651 14.6159 132.266 18.8477 129.531C23.1445 126.732 28.4505 124.616 34.7656 123.184C41.0807 121.751 48.4049 121.035 56.7383 121.035H74.3164ZM120.898 186.953C112.695 186.953 105.436 185.749 99.1211 183.34C92.806 180.931 87.4674 177.513 83.1055 173.086C78.7435 168.659 75.4557 163.451 73.2422 157.461C71.0286 151.406 69.9219 144.798 69.9219 137.637V129.922C69.9219 122.174 70.931 115.111 72.9492 108.73C75.0326 102.285 78.125 96.7188 82.2266 92.0312C86.3932 87.3438 91.6016 83.7305 97.8516 81.1914C104.102 78.5872 111.426 77.3177 119.824 77.3828C126.725 77.3828 132.91 78.4896 138.379 80.7031C143.913 82.9167 148.633 86.1068 152.539 90.2734C156.445 94.4401 159.44 99.4857 161.523 105.41C163.607 111.27 164.648 117.878 164.648 125.234V142.52H82.5195V121.914H132.422V119.375C132.422 115.859 131.934 112.865 130.957 110.391C129.98 107.917 128.548 106.029 126.66 104.727C124.837 103.424 122.559 102.773 119.824 102.773C116.309 102.773 113.379 103.457 111.035 104.824C108.691 106.126 106.868 108.014 105.566 110.488C104.264 112.897 103.32 115.762 102.734 119.082C102.214 122.402 101.953 126.016 101.953 129.922V137.637C101.953 141.087 102.376 144.277 103.223 147.207C104.134 150.072 105.501 152.578 107.324 154.727C109.212 156.875 111.654 158.568 114.648 159.805C117.643 160.977 121.257 161.562 125.488 161.562C131.803 161.562 136.979 160.944 141.016 159.707C145.117 158.405 149.186 156.842 153.223 155.02L161.23 175.137C158.561 177.155 155.111 179.076 150.879 180.898C146.712 182.721 142.057 184.186 136.914 185.293C131.771 186.4 126.432 186.953 120.898 186.953Z" fill="#001A78"/>
<path d="M218.48 105.508V185H185.57V79.3359H216.332L218.48 105.508ZM249.73 78.5547L249.145 109.121C247.842 108.991 246.085 108.828 243.871 108.633C241.658 108.438 239.802 108.34 238.305 108.34C234.464 108.34 231.143 108.796 228.344 109.707C225.609 110.553 223.331 111.855 221.508 113.613C219.75 115.306 218.448 117.454 217.602 120.059C216.82 122.663 216.462 125.69 216.527 129.141L210.57 125.234C210.57 118.138 211.254 111.693 212.621 105.898C214.053 100.039 216.072 94.9935 218.676 90.7617C221.28 86.4648 224.438 83.1771 228.148 80.8984C231.859 78.5547 236.026 77.3828 240.648 77.3828C242.276 77.3828 243.871 77.4805 245.434 77.6758C247.061 77.8711 248.493 78.1641 249.73 78.5547ZM253.441 133.242V131.191C253.441 123.444 254.548 116.315 256.762 109.805C258.975 103.229 262.23 97.5326 266.527 92.7148C270.824 87.8971 276.13 84.1536 282.445 81.4844C288.76 78.75 296.052 77.3828 304.32 77.3828C312.654 77.3828 319.978 78.75 326.293 81.4844C332.673 84.1536 338.012 87.8971 342.309 92.7148C346.605 97.5326 349.861 103.229 352.074 109.805C354.288 116.315 355.395 123.444 355.395 131.191V133.242C355.395 140.924 354.288 148.053 352.074 154.629C349.861 161.139 346.605 166.836 342.309 171.719C338.012 176.536 332.706 180.28 326.391 182.949C320.076 185.618 312.784 186.953 304.516 186.953C296.247 186.953 288.923 185.618 282.543 182.949C276.163 180.28 270.824 176.536 266.527 171.719C262.23 166.836 258.975 161.139 256.762 154.629C254.548 148.053 253.441 140.924 253.441 133.242ZM286.352 131.191V133.242C286.352 137.214 286.645 140.924 287.23 144.375C287.816 147.826 288.793 150.853 290.16 153.457C291.527 155.996 293.383 157.982 295.727 159.414C298.07 160.846 301 161.562 304.516 161.562C307.966 161.562 310.831 160.846 313.109 159.414C315.453 157.982 317.309 155.996 318.676 153.457C320.043 150.853 321.02 147.826 321.605 144.375C322.191 140.924 322.484 137.214 322.484 133.242V131.191C322.484 127.35 322.191 123.737 321.605 120.352C321.02 116.901 320.043 113.874 318.676 111.27C317.309 108.6 315.453 106.517 313.109 105.02C310.766 103.522 307.836 102.773 304.32 102.773C300.87 102.773 297.973 103.522 295.629 105.02C293.35 106.517 291.527 108.6 290.16 111.27C288.793 113.874 287.816 116.901 287.23 120.352C286.645 123.737 286.352 127.35 286.352 131.191ZM365.941 133.242V131.191C365.941 123.444 367.048 116.315 369.262 109.805C371.475 103.229 374.73 97.5326 379.027 92.7148C383.324 87.8971 388.63 84.1536 394.945 81.4844C401.26 78.75 408.552 77.3828 416.82 77.3828C425.154 77.3828 432.478 78.75 438.793 81.4844C445.173 84.1536 450.512 87.8971 454.809 92.7148C459.105 97.5326 462.361 103.229 464.574 109.805C466.788 116.315 467.895 123.444 467.895 131.191V133.242C467.895 140.924 466.788 148.053 464.574 154.629C462.361 161.139 459.105 166.836 454.809 171.719C450.512 176.536 445.206 180.28 438.891 182.949C432.576 185.618 425.284 186.953 417.016 186.953C408.747 186.953 401.423 185.618 395.043 182.949C388.663 180.28 383.324 176.536 379.027 171.719C374.73 166.836 371.475 161.139 369.262 154.629C367.048 148.053 365.941 140.924 365.941 133.242ZM398.852 131.191V133.242C398.852 137.214 399.145 140.924 399.73 144.375C400.316 147.826 401.293 150.853 402.66 153.457C404.027 155.996 405.883 157.982 408.227 159.414C410.57 160.846 413.5 161.562 417.016 161.562C420.466 161.562 423.331 160.846 425.609 159.414C427.953 157.982 429.809 155.996 431.176 153.457C432.543 150.853 433.52 147.826 434.105 144.375C434.691 140.924 434.984 137.214 434.984 133.242V131.191C434.984 127.35 434.691 123.737 434.105 120.352C433.52 116.901 432.543 113.874 431.176 111.27C429.809 108.6 427.953 106.517 425.609 105.02C423.266 103.522 420.336 102.773 416.82 102.773C413.37 102.773 410.473 103.522 408.129 105.02C405.85 106.517 404.027 108.6 402.66 111.27C401.293 113.874 400.316 116.901 399.73 120.352C399.145 123.737 398.852 127.35 398.852 131.191ZM513.746 101.699V185H480.836V79.3359H511.695L513.746 101.699ZM509.742 128.555L502.223 128.75C502.223 121.328 503.102 114.492 504.859 108.242C506.617 101.992 509.221 96.556 512.672 91.9336C516.122 87.3112 520.354 83.7305 525.367 81.1914C530.445 78.6523 536.305 77.3828 542.945 77.3828C547.568 77.3828 551.767 78.099 555.543 79.5312C559.319 80.8984 562.574 83.0794 565.309 86.0742C568.043 89.0039 570.126 92.8451 571.559 97.5977C573.056 102.285 573.805 107.917 573.805 114.492V185H540.895V118.691C540.895 114.199 540.374 110.814 539.332 108.535C538.355 106.257 536.923 104.727 535.035 103.945C533.147 103.164 530.836 102.773 528.102 102.773C525.237 102.773 522.665 103.424 520.387 104.727C518.108 106.029 516.155 107.852 514.527 110.195C512.965 112.474 511.76 115.176 510.914 118.301C510.133 121.426 509.742 124.844 509.742 128.555ZM570.094 128.555L560.914 128.75C560.914 121.328 561.728 114.492 563.355 108.242C565.048 101.992 567.555 96.556 570.875 91.9336C574.26 87.3112 578.46 83.7305 583.473 81.1914C588.486 78.6523 594.312 77.3828 600.953 77.3828C605.771 77.3828 610.198 78.099 614.234 79.5312C618.271 80.9635 621.754 83.2747 624.684 86.4648C627.613 89.6549 629.892 93.8867 631.52 99.1602C633.147 104.368 633.961 110.814 633.961 118.496V185H600.953V118.496C600.953 114.134 600.432 110.846 599.391 108.633C598.414 106.354 596.982 104.824 595.094 104.043C593.206 103.197 590.96 102.773 588.355 102.773C585.23 102.773 582.529 103.424 580.25 104.727C577.971 106.029 576.051 107.852 574.488 110.195C572.991 112.474 571.884 115.176 571.168 118.301C570.452 121.426 570.094 124.844 570.094 128.555Z" fill="#001A78"/>
<path d="M70.0195 158.129V107.543C70.0195 104.678 69.4987 102.237 68.457 100.219C67.4805 98.1354 66.0156 96.5404 64.0625 95.4336C62.1745 94.3268 59.8307 93.7734 57.0312 93.7734C53.9062 93.7734 51.2695 94.2292 49.1211 95.1406C47.0378 95.987 45.4427 97.1589 44.3359 98.6562C43.2292 100.154 42.6758 101.846 42.6758 103.734L9.66797 101.879C9.66797 96.9961 10.7747 92.5365 12.9883 88.5C15.2669 84.3984 18.4896 80.8503 22.6562 77.8555C26.8229 74.8607 31.8359 72.5495 37.6953 70.9219C43.6198 69.2292 50.2279 68.3828 57.5195 68.3828C66.569 68.3828 74.4141 69.8477 81.0547 72.7773C87.6953 75.707 92.8385 80.1016 96.4844 85.9609C100.13 91.7552 101.953 99.0143 101.953 107.738V154.711L70.0195 158.129ZM74.3164 112.035L74.6094 131.957H56.9336C53.0273 131.957 49.7396 132.576 47.0703 133.812C44.401 134.984 42.3828 136.547 41.0156 138.5C39.6484 140.453 38.9648 142.536 38.9648 144.75C38.9648 146.898 39.4857 148.786 40.5273 150.414C41.569 151.977 43.1641 153.181 45.3125 154.027C47.4609 154.874 50.2279 155.297 53.6133 155.297C56.0221 155.297 58.4635 154.874 60.9375 154.027C63.4115 153.181 65.6901 152.107 67.7734 150.805C69.8568 149.438 71.5169 147.973 72.7539 146.41C74.056 144.848 74.707 143.35 74.707 141.918L89.6484 157.152C88.0208 160.277 85.3841 163.467 81.7383 166.723C78.1576 169.913 73.5026 172.582 67.7734 174.73C62.0443 176.879 55.2409 177.953 47.3633 177.953C38.444 177.953 30.8919 176.586 24.707 173.852C18.5872 171.052 13.9323 167.146 10.7422 162.133C7.55208 157.055 5.95703 151.13 5.95703 144.359C5.95703 139.216 7.03125 134.659 9.17969 130.688C11.3932 126.651 14.6159 123.266 18.8477 120.531C23.1445 117.732 28.4505 115.616 34.7656 114.184C41.0807 112.751 48.4049 112.035 56.7383 112.035H74.3164ZM120.898 177.953C112.695 177.953 105.436 176.749 99.1211 174.34C92.806 171.931 87.4674 168.513 83.1055 164.086C78.7435 159.659 75.4557 154.451 73.2422 148.461C71.0286 142.406 69.9219 135.798 69.9219 128.637V120.922C69.9219 113.174 70.931 106.111 72.9492 99.7305C75.0326 93.2852 78.125 87.7188 82.2266 83.0312C86.3932 78.3438 91.6016 74.7305 97.8516 72.1914C104.102 69.5872 111.426 68.3177 119.824 68.3828C126.725 68.3828 132.91 69.4896 138.379 71.7031C143.913 73.9167 148.633 77.1068 152.539 81.2734C156.445 85.4401 159.44 90.4857 161.523 96.4102C163.607 102.27 164.648 108.878 164.648 116.234V133.52H82.5195V112.914H132.422V110.375C132.422 106.859 131.934 103.865 130.957 101.391C129.98 98.9167 128.548 97.0286 126.66 95.7266C124.837 94.4245 122.559 93.7734 119.824 93.7734C116.309 93.7734 113.379 94.457 111.035 95.8242C108.691 97.1263 106.868 99.0143 105.566 101.488C104.264 103.897 103.32 106.762 102.734 110.082C102.214 113.402 101.953 117.016 101.953 120.922V128.637C101.953 132.087 102.376 135.277 103.223 138.207C104.134 141.072 105.501 143.578 107.324 145.727C109.212 147.875 111.654 149.568 114.648 150.805C117.643 151.977 121.257 152.562 125.488 152.562C131.803 152.562 136.979 151.944 141.016 150.707C145.117 149.405 149.186 147.842 153.223 146.02L161.23 166.137C158.561 168.155 155.111 170.076 150.879 171.898C146.712 173.721 142.057 175.186 136.914 176.293C131.771 177.4 126.432 177.953 120.898 177.953Z" fill="white"/>
</svg>
