<svg width="307" height="258" viewBox="0 0 307 258" fill="none" xmlns="http://www.w3.org/2000/svg">
<circle cx="157.264" cy="129" r="129" fill="white"/>
<ellipse cx="90.2005" cy="140.854" rx="88" ry="19.306" transform="rotate(4.30306 90.2005 140.854)" fill="white"/>
<ellipse cx="89.5776" cy="169.822" rx="88" ry="18.6281" transform="rotate(6.73654 89.5776 169.822)" fill="white"/>
<ellipse cx="89.6912" cy="198.098" rx="88" ry="18.6456" transform="rotate(7.58515 89.6912 198.098)" fill="white"/>
<ellipse cx="256.5" cy="135.5" rx="50.5" ry="46.5" fill="white"/>
<path d="M223.264 163.316C223.264 199.592 195.153 229 157.264 229C119.375 229 91.2642 199.592 91.2642 163.316C91.2642 100.279 147.486 21 157.264 21C167.042 21 223.264 100.279 223.264 163.316Z" fill="url(#paint0_linear_47_14)"/>
<ellipse cx="157.264" cy="170.5" rx="32" ry="31.5" fill="white"/>
<rect x="147.264" y="75" width="20" height="73" rx="5" fill="white"/>
<rect x="210.264" y="75" width="10" height="29" rx="5" transform="rotate(90 210.264 75)" fill="white"/>
<rect x="215.264" y="92" width="10" height="34" rx="5" transform="rotate(90 215.264 92)" fill="white"/>
<path d="M16 135.081C16 132.001 18.9007 129.729 21.9005 130.429C37.8655 134.157 82.7974 143.717 113.883 141.17C146.002 138.538 161.827 116.922 193.861 120.481C209.154 122.181 216.382 130.996 231.76 131.434V131.434C234.219 131.504 236.237 133.452 236.237 135.911V136.693C236.237 139.179 234.245 141.241 231.76 141.17V141.17C216.382 140.732 209.154 131.916 193.861 130.217C161.827 126.657 146.002 148.274 113.883 150.906C81.0716 153.594 32.8336 142.794 19.5166 139.601C17.4249 139.1 16 137.232 16 135.081V135.081Z" fill="black"/>
<path d="M225.948 135.198C224.998 137.675 226.22 140.518 228.842 140.923C230.588 141.193 232.367 141.242 234.137 141.067C237.5 140.734 240.738 139.597 243.589 137.749C246.44 135.9 248.823 133.393 250.545 130.429C252.267 127.466 253.279 124.13 253.5 120.693C253.72 117.255 253.142 113.814 251.813 110.647C250.484 107.48 248.441 104.677 245.85 102.466C243.259 100.256 240.194 98.6987 236.902 97.9223C235.18 97.516 233.421 97.3294 231.665 97.3622C229.001 97.412 227.411 100.085 228.039 102.675C228.674 105.297 231.394 106.792 234.053 107.251C234.287 107.292 234.521 107.339 234.753 107.394C236.583 107.826 238.288 108.692 239.729 109.922C241.17 111.151 242.307 112.71 243.046 114.471C243.785 116.233 244.106 118.147 243.984 120.059C243.861 121.97 243.298 123.826 242.341 125.474C241.383 127.122 240.057 128.517 238.472 129.545C236.886 130.573 235.085 131.205 233.215 131.391C232.981 131.414 232.747 131.43 232.513 131.439C229.813 131.544 226.916 132.675 225.948 135.198Z" fill="black"/>
<path d="M16 188.629C16 185.548 18.9007 183.276 21.9005 183.976C37.8655 187.704 82.7974 197.264 113.883 194.717C146.002 192.086 161.743 172.049 193.861 169.16C207.394 167.943 195.177 169.16 210.042 167.943C212.544 167.739 214.518 169.912 214.518 172.422V173.2C214.518 175.635 212.469 177.481 210.042 177.679C195.177 178.896 204.679 177.679 193.861 178.896C161.833 182.499 146.002 201.821 113.883 204.453C81.0716 207.141 32.8336 196.341 19.5166 193.148C17.4249 192.647 16 190.78 16 188.629Z" fill="black"/>
<path d="M204.716 205.783C203.532 208.111 204.749 210.955 207.331 211.344C210.038 211.753 212.816 211.858 215.58 211.652C220.041 211.319 224.337 210.182 228.12 208.334C231.902 206.485 235.064 203.978 237.348 201.014C239.633 198.05 240.976 194.715 241.268 191.277C241.56 187.84 240.794 184.399 239.03 181.232C237.267 178.065 234.557 175.262 231.12 173.051C227.683 170.84 223.616 169.284 219.249 168.507C216.291 167.981 213.253 167.824 210.248 168.033C207.958 168.193 206.569 170.499 207.237 172.696C207.99 175.176 206.23 177.679 208.821 177.679C211.536 177.679 215.55 177.679 216.896 177.679C219.61 177.679 222.158 177.908 224.317 179.297C226.476 180.686 228.178 182.447 229.286 184.436C230.394 186.425 230.875 188.587 230.692 190.746C230.508 192.906 229.664 195.001 228.229 196.863C226.794 198.724 224.808 200.3 222.432 201.461C220.056 202.622 217.357 203.336 214.555 203.545C212.937 203.666 211.31 203.616 209.72 203.401C207.712 203.13 205.635 203.978 204.716 205.783Z" fill="black"/>
<path d="M16 161.716C16 158.671 18.7938 156.392 21.7756 157.01C39.0477 160.588 91.3316 170.535 127.307 167.943C163.831 165.312 181.827 143.695 218.253 147.255C235.644 148.954 243.863 157.77 261.35 158.208C261.398 158.209 261.446 158.21 261.494 158.211C264.212 158.271 266.441 160.435 266.441 163.154C266.441 165.811 264.308 168.001 261.65 167.95C261.548 167.948 261.448 167.946 261.35 167.943C243.863 167.505 235.644 158.69 218.253 156.991C181.827 153.431 163.831 175.048 127.307 177.679C89.7181 180.387 34.3252 169.406 19.6676 166.305C17.4974 165.846 16 163.934 16 161.716Z" fill="black"/>
<path d="M250.585 160.822C249.386 163.472 250.737 166.603 253.592 167.161C257.397 167.906 261.327 168.123 265.234 167.795C270.97 167.314 276.494 165.672 281.357 163.002C286.22 160.332 290.285 156.71 293.222 152.429C296.159 148.148 297.886 143.33 298.262 138.365C298.637 133.4 297.652 128.429 295.385 123.855C293.118 119.28 289.633 115.232 285.214 112.039C280.795 108.845 275.566 106.596 269.951 105.475C266.042 104.694 262.023 104.475 258.054 104.816C255.244 105.058 253.558 107.886 254.334 110.597C255.038 113.057 257.531 114.508 260.086 114.369C262.542 114.235 265.015 114.409 267.428 114.891C271.327 115.67 274.959 117.232 278.028 119.45C281.098 121.668 283.518 124.48 285.092 127.657C286.667 130.834 287.351 134.287 287.09 137.735C286.83 141.183 285.63 144.53 283.59 147.503C281.55 150.476 278.727 152.992 275.349 154.846C271.972 156.701 268.135 157.841 264.151 158.175C261.665 158.384 259.165 158.275 256.73 157.857C254.241 157.43 251.627 158.522 250.585 160.822Z" fill="black"/>
<defs>
<linearGradient id="paint0_linear_47_14" x1="157.264" y1="21" x2="157.264" y2="229" gradientUnits="userSpaceOnUse">
<stop stop-color="#52DAC2"/>
<stop offset="1" stop-color="#3BCFB4"/>
</linearGradient>
</defs>
</svg>
